<?xml version="1.0" encoding="utf-8"?>
<!-- Generator: Adobe Illustrator 16.0.0, SVG Export Plug-In . SVG Version: 6.00 Build 0)  -->
<!DOCTYPE svg PUBLIC "-//W3C//DTD SVG 1.1//EN" "http://www.w3.org/Graphics/SVG/1.1/DTD/svg11.dtd">
<svg version="1.1" id="图层_1" xmlns="http://www.w3.org/2000/svg" xmlns:xlink="http://www.w3.org/1999/xlink" x="0px" y="0px"
	 width="410.196px" height="412.189px" viewBox="0 0 410.196 412.189" enable-background="new 0 0 410.196 412.189"
	 xml:space="preserve">
<g>
	<path fill="#FFFFFF" d="M274.849,274.522c1.535,0.619,2.918,1.924,4.15,3.919c1.225,2.004,1.845,4.23,1.845,6.688v39.198
		c0,1.845-0.62,3.387-1.845,4.611c-1.232,1.232-2.616,1.845-4.15,1.845c-0.62,0-1.153-0.072-1.614-0.23
		c-0.461-0.151-1.001-0.382-1.614-0.692L92.231,226.562c-0.62-0.303-1.153-0.533-1.614-0.692c-0.461-0.151-0.85-0.23-1.153-0.23
		c-1.845,0-3.387,0.62-4.612,1.845c-1.232,1.232-1.844,2.615-1.844,4.15v24.902c0,7.688,1.917,14.526,5.764,20.521
		c3.841,5.995,8.222,9.915,13.143,11.76l178.929,103.299c-21.833,9.532-46.577,14.296-74.246,14.296
		c-36.59,0-70.024-8.993-100.302-26.978c-30.285-17.985-54.417-42.038-72.401-72.172C15.91,277.137,6.917,243.625,6.917,206.732
		c0-27.67,5.995-54.258,17.985-79.78c11.99-25.515,31.359-51.188,58.106-77.013v92.693c0,7.688,1.917,14.454,5.764,20.291
		c3.841,5.844,8.222,9.684,13.143,11.528L274.849,274.522z M132.813,21.347c21.826-9.526,46.418-14.296,73.785-14.296
		c36.892,0,70.478,8.993,100.762,26.978c30.278,17.985,54.417,42.044,72.402,72.171c17.985,30.134,26.978,63.64,26.978,100.532
		c0,27.669-6.074,54.344-18.216,80.01c-12.148,25.674-31.589,51.419-58.336,77.244v-93.153c0-7.682-1.845-14.447-5.534-20.291
		c-3.689-5.837-7.998-9.685-12.912-11.528L138.808,138.942c-1.542-0.612-2.926-1.917-4.15-3.92
		c-1.232-1.996-1.845-4.223-1.845-6.687V89.137c0-1.845,0.533-3.38,1.614-4.612c1.073-1.225,2.536-1.845,4.381-1.845
		c0.303,0,0.691,0.079,1.153,0.23c0.461,0.159,1.153,0.389,2.075,0.692l178.929,103.76c0.922,0.311,1.614,0.462,2.075,0.462
		c0.461,0,0.843,0,1.153,0c1.845,0,3.3-0.612,4.381-1.845c1.074-1.226,1.614-2.608,1.614-4.15v-24.902
		c0-7.682-1.845-14.526-5.534-20.521c-3.689-5.995-7.998-9.915-12.912-11.76L132.813,21.347z"/>
</g>
<g>
</g>
<g>
</g>
<g>
</g>
<g>
</g>
<g>
</g>
<g>
</g>
</svg>
